<?xml version="1.0" encoding="UTF-8"?>
<svg id="Layer_1" data-name="Layer 1" xmlns="http://www.w3.org/2000/svg" viewBox="0 0 82 82">
  <defs>
    <style>
      .cls-1 {
        fill: #7688a3;
      }

      .cls-1, .cls-2, .cls-3, .cls-4, .cls-5 {
        stroke-width: 0px;
      }

      .cls-2 {
        fill: #63768a;
      }

      .cls-3 {
        fill: #444c57;
      }

      .cls-4 {
        fill: #d4b8ab;
      }

      .cls-5 {
        fill: #efe0da;
      }
    </style>
  </defs>
  <path class="cls-5" d="m80.97,21.1c-.21-1.75-.55-3.46-1.03-5.13-.48-1.67-1.29-3.52-2.43-5.57-1.14-2.03-2.8-3.91-4.97-5.64-2.18-1.72-4.84-2.94-8-3.65-1.74-.39-3.5-.61-5.3-.66-.49-.01-.97-.02-1.45-.02-2.8,0-5.63.27-8.49.82-2.86.55-5.76,1.4-8.69,2.55-5.18,2.04-9.9,4.57-14.16,7.6-4.26,3.03-8.09,6.5-11.51,10.43-1.86,2.14-3.45,4.4-4.78,6.79-2.62,3.87-4.71,8.05-6.26,12.57-1.07,3.11-1.79,5.89-2.16,8.34-.36,2.45-.56,4.53-.59,6.25-.02,1.55.05,3.11.21,4.69.18,1.75.5,3.47.96,5.14.46,1.67,1.24,3.54,2.35,5.6,1.11,2.05,2.74,3.95,4.9,5.7,2.15,1.75,4.81,3,7.95,3.75,1.73.41,3.49.65,5.29.73.49.02.97.03,1.45.04,2.8.04,5.63-.19,8.5-.71.07-.01.14-.03.2-.04.71-.05,1.65-.2,2.83-.47,1.44-.33,2.68-.71,3.73-1.14.45-.18.89-.38,1.33-.57.21-.08.41-.14.62-.22.21-.08.4-.17.61-.25.05,0,.11-.02.15-.02.06,0,.15.02.27.05.12.04.26.22.41.54.13.23.26.35.39.36.13,0,.21,0,.22,0,.23,0,.47-.07.7-.21.39-.23.58-.54.58-.93-.01-.08-.02-.16-.02-.23,0-.31.08-.57.25-.8,3.83-1.69,7.4-3.67,10.7-5.95,4.3-2.97,8.18-6.4,11.64-10.27,2.37-2.65,4.31-5.5,5.85-8.55,2.26-3.62,4.07-7.5,5.44-11.65,1.03-3.12,1.72-5.91,2.05-8.37.33-2.45.5-4.54.5-6.25,0-1.55-.09-3.11-.27-4.69Z"/>
  <g>
    <g>
      <ellipse class="cls-4" cx="63.59" cy="23.21" rx="6.04" ry="7.21"/>
      <path class="cls-3" d="m69.65,27.06c-1.21,2.51-3.47,4.2-6.06,4.2s-4.85-1.7-6.06-4.2c-1.08.86-2.05,1.95-2.87,3.21l.18.12c4.17,2.79,6.85,7.41,7.42,12.63h12.91c.11-.86.18-1.75.18-2.65,0-5.65-2.29-10.58-5.7-13.31Z"/>
    </g>
    <g>
      <ellipse class="cls-3" cx="27.74" cy="24.57" rx="6.59" ry="7.33"/>
      <path class="cls-1" d="m37.08,31.22c-.8-1.05-1.72-1.97-2.73-2.73-1.32,2.55-3.79,4.27-6.61,4.27s-5.3-1.72-6.61-4.27c-3.72,2.77-6.21,7.78-6.21,13.53,0,.92.08,1.82.2,2.7h15.56c.11-5.41,2.47-10.34,6.41-13.5Z"/>
    </g>
    <g>
      <circle class="cls-2" cx="46.44" cy="26.56" r="7.79"/>
      <path class="cls-4" d="m61.38,48c.15-.94.24-1.89.24-2.87,0-6.11-2.95-11.45-7.35-14.39-1.56,2.71-4.48,4.55-7.83,4.55s-6.27-1.83-7.83-4.55c-4.4,2.95-7.35,8.28-7.35,14.39,0,.98.09,1.94.24,2.87h29.88Z"/>
    </g>
  </g>
  <g>
    <path class="cls-2" d="m17.77,46.7v2.94h-3.58v13.1h-3.39v-13.1h-3.58v-2.94h10.55Z"/>
    <path class="cls-2" d="m20.29,57.61v1.02c0,1.37.6,2.04,1.79,2.04.91,0,1.44-.42,1.86-1.46l2.15.8c-.64,1.97-1.97,2.94-4.34,2.94-2.9,0-4.51-1.81-4.51-4.2v-3.34c0-2.23,1.5-4.16,4.49-4.16,2.83,0,4.34,1.92,4.34,4.29v2.08h-5.77Zm0-1.73h3.1v-.69c0-1.17-.55-1.73-1.55-1.73-1.08,0-1.55.6-1.55,1.75v.66Z"/>
    <path class="cls-2" d="m27.72,53.98c.8-1.66,2.12-2.77,4.2-2.77,2.85,0,3.94,1.73,3.94,3.87v5.13c0,.44.24.71.69.71h.31v1.73c-.42.11-.91.22-1.37.22-1.08,0-1.73-.4-2.12-.93-.77.69-1.7,1-2.81,1-2.01,0-3.19-1.31-3.19-3.16s1.11-3.7,4.85-3.7h.62v-1c0-1.15-.44-1.55-1.35-1.55-.73,0-1.44.44-1.9,1.42l-1.86-.97Zm5.11,6.26v-2.19h-.62c-1.48,0-1.95.58-1.95,1.46,0,1.06.42,1.37,1.08,1.37s1.11-.24,1.48-.64Z"/>
    <path class="cls-2" d="m47.08,62.74h-3.03v-7.08c0-1.44-.51-1.92-1.28-1.92-.62,0-1.17.42-1.46,1.02v7.99h-3.05v-11.31h2.7v1.11h.04c.69-.86,1.66-1.3,2.77-1.3s2.08.51,2.61,1.5c.71-.93,1.77-1.5,3.05-1.5,2.19,0,3.43,1.35,3.43,4.4v7.1h-3.05v-7.08c0-1.28-.4-1.92-1.33-1.92-.82,0-1.39.53-1.39,1.92v7.08Z"/>
    <path class="cls-2" d="m60.44,54.69c-.42-.97-1.04-1.31-1.81-1.31-.86,0-1.26.38-1.26.97,0,1.79,5.13,1.28,5.13,5.07,0,2.01-1.66,3.52-4,3.52-1.97,0-3.36-.82-4.14-2.68l1.95-.89c.49,1.02,1.33,1.44,2.08,1.44.84,0,1.24-.35,1.24-1.08,0-1.88-5.13-1.31-5.13-5.11,0-1.9,1.44-3.38,4-3.38,2.01,0,3.41,1.08,3.94,2.74l-1.99.71Z"/>
  </g>
</svg>