<?xml version="1.0" encoding="UTF-8"?>
<svg id="Layer_1" data-name="Layer 1" xmlns="http://www.w3.org/2000/svg" viewBox="0 0 82 82">
  <defs>
    <style>
      .cls-1 {
        stroke-width: 0px;
      }
    </style>
  </defs>
  <ellipse class="cls-1" cx="66.04" cy="31.14" rx="8.19" ry="9.78"/>
  <path class="cls-1" d="m74.27,36.37c-1.64,3.4-4.71,5.7-8.23,5.7s-6.59-2.3-8.23-5.7c-1.47,1.17-2.78,2.65-3.89,4.36l.24.16c5.65,3.78,9.29,10.05,10.07,17.13h17.52c.15-1.17.25-2.37.25-3.6,0-7.67-3.1-14.36-7.73-18.05Z"/>
  <ellipse class="cls-1" cx="17.41" cy="32.99" rx="8.94" ry="9.94"/>
  <path class="cls-1" d="m30.08,42.01c-1.09-1.43-2.33-2.68-3.7-3.7-1.79,3.46-5.14,5.8-8.97,5.8s-7.19-2.34-8.97-5.8C3.39,42.07,0,48.87,0,56.67c0,1.25.1,2.47.27,3.66h21.11c.15-7.34,3.35-14.03,8.7-18.32Z"/>
  <circle class="cls-1" cx="42.77" cy="35.7" r="10.58" transform="translate(-6.58 61.55) rotate(-67.5)"/>
  <path class="cls-1" d="m53.39,41.36c-2.11,3.68-6.08,6.17-10.62,6.17s-8.5-2.49-10.62-6.17c-5.97,4-9.98,11.24-9.98,19.53,0,1.33.12,2.63.32,3.9h40.55c.2-1.27.32-2.57.32-3.9,0-8.3-4.01-15.53-9.98-19.53Z"/>
</svg>